<svg>
    <defs>
        <symbol id="logo"  width="134" height="19" viewBox="0 0 134 19" fill="none" xmlns="http://www.w3.org/2000/svg">
            <path d="M0.775879 18.0001V1.20011H5.93588C8.89588 1.20011 11.0719 1.95211 12.4639 3.45611C13.8719 4.96011 14.5759 7.02411 14.5759 9.64811C14.5759 12.2241 13.8719 14.2641 12.4639 15.7681C11.0719 17.2561 8.89588 18.0001 5.93588 18.0001H0.775879ZM2.79188 16.3201H5.88788C7.51988 16.3201 8.81588 16.0561 9.77588 15.5281C10.7519 14.9841 11.4479 14.2161 11.8639 13.2241C12.2799 12.2161 12.4879 11.0241 12.4879 9.64811C12.4879 8.24011 12.2799 7.03211 11.8639 6.02411C11.4479 5.01611 10.7519 4.24011 9.77588 3.69611C8.81588 3.15211 7.51988 2.88011 5.88788 2.88011H2.79188V16.3201Z" fill="white"/>
            <path d="M23.2708 18.2881C22.1508 18.2881 21.1428 18.0321 20.2468 17.5201C19.3508 17.0081 18.6388 16.2881 18.1108 15.3601C17.5988 14.4161 17.3428 13.3121 17.3428 12.0481C17.3428 10.7841 17.6068 9.68811 18.1348 8.76011C18.6628 7.81611 19.3748 7.08811 20.2708 6.57611C21.1828 6.06411 22.1988 5.80811 23.3188 5.80811C24.4388 5.80811 25.4468 6.06411 26.3428 6.57611C27.2388 7.08811 27.9428 7.81611 28.4548 8.76011C28.9828 9.68811 29.2468 10.7841 29.2468 12.0481C29.2468 13.3121 28.9828 14.4161 28.4548 15.3601C27.9268 16.2881 27.2068 17.0081 26.2948 17.5201C25.3988 18.0321 24.3908 18.2881 23.2708 18.2881ZM23.2708 16.5601C23.9588 16.5601 24.5988 16.3921 25.1908 16.0561C25.7828 15.7201 26.2628 15.2161 26.6308 14.5441C26.9988 13.8721 27.1828 13.0401 27.1828 12.0481C27.1828 11.0561 26.9988 10.2241 26.6308 9.55211C26.2788 8.88011 25.8068 8.37611 25.2148 8.04011C24.6228 7.70411 23.9908 7.53611 23.3188 7.53611C22.6308 7.53611 21.9908 7.70411 21.3988 8.04011C20.8068 8.37611 20.3268 8.88011 19.9588 9.55211C19.5908 10.2241 19.4068 11.0561 19.4068 12.0481C19.4068 13.0401 19.5908 13.8721 19.9588 14.5441C20.3268 15.2161 20.7988 15.7201 21.3748 16.0561C21.9668 16.3921 22.5988 16.5601 23.2708 16.5601Z" fill="white"/>
            <path d="M38.0019 18.2881C36.8659 18.2881 35.8419 18.0321 34.9299 17.5201C34.0339 16.9921 33.3219 16.2641 32.7939 15.3361C32.2819 14.3921 32.0259 13.2961 32.0259 12.0481C32.0259 10.8001 32.2819 9.71211 32.7939 8.78411C33.3219 7.84011 34.0339 7.11211 34.9299 6.60011C35.8419 6.07211 36.8659 5.80811 38.0019 5.80811C39.4099 5.80811 40.5939 6.17611 41.5539 6.91211C42.5299 7.64811 43.1459 8.63211 43.4019 9.86411H41.3379C41.1779 9.12811 40.7859 8.56011 40.1619 8.16011C39.5379 7.74411 38.8099 7.53611 37.9779 7.53611C37.3059 7.53611 36.6739 7.70411 36.0819 8.04011C35.4899 8.37611 35.0099 8.88011 34.6419 9.55211C34.2739 10.2241 34.0899 11.0561 34.0899 12.0481C34.0899 13.0401 34.2739 13.8721 34.6419 14.5441C35.0099 15.2161 35.4899 15.7281 36.0819 16.0801C36.6739 16.4161 37.3059 16.5841 37.9779 16.5841C38.8099 16.5841 39.5379 16.3841 40.1619 15.9841C40.7859 15.5681 41.1779 14.9841 41.3379 14.2321H43.4019C43.1619 15.4321 42.5539 16.4081 41.5779 17.1601C40.6019 17.9121 39.4099 18.2881 38.0019 18.2881Z" fill="white"/>
            <path d="M51.0733 18.0001C49.9853 18.0001 49.1293 17.7361 48.5053 17.2081C47.8813 16.6801 47.5693 15.7281 47.5693 14.3521V7.80011H45.5053V6.09611H47.5693L47.8333 3.24011H49.5853V6.09611H53.0893V7.80011H49.5853V14.3521C49.5853 15.1041 49.7373 15.6161 50.0413 15.8881C50.3453 16.1441 50.8813 16.2721 51.6493 16.2721H52.8973V18.0001H51.0733Z" fill="white"/>
            <path d="M61.2264 18.2881C60.1064 18.2881 59.0984 18.0321 58.2024 17.5201C57.3064 17.0081 56.5944 16.2881 56.0664 15.3601C55.5544 14.4161 55.2984 13.3121 55.2984 12.0481C55.2984 10.7841 55.5624 9.68811 56.0904 8.76011C56.6184 7.81611 57.3304 7.08811 58.2264 6.57611C59.1384 6.06411 60.1544 5.80811 61.2744 5.80811C62.3944 5.80811 63.4024 6.06411 64.2984 6.57611C65.1944 7.08811 65.8984 7.81611 66.4104 8.76011C66.9384 9.68811 67.2024 10.7841 67.2024 12.0481C67.2024 13.3121 66.9384 14.4161 66.4104 15.3601C65.8824 16.2881 65.1624 17.0081 64.2504 17.5201C63.3544 18.0321 62.3464 18.2881 61.2264 18.2881ZM61.2264 16.5601C61.9144 16.5601 62.5544 16.3921 63.1464 16.0561C63.7384 15.7201 64.2184 15.2161 64.5864 14.5441C64.9544 13.8721 65.1384 13.0401 65.1384 12.0481C65.1384 11.0561 64.9544 10.2241 64.5864 9.55211C64.2344 8.88011 63.7624 8.37611 63.1704 8.04011C62.5784 7.70411 61.9464 7.53611 61.2744 7.53611C60.5864 7.53611 59.9464 7.70411 59.3544 8.04011C58.7624 8.37611 58.2824 8.88011 57.9144 9.55211C57.5464 10.2241 57.3624 11.0561 57.3624 12.0481C57.3624 13.0401 57.5464 13.8721 57.9144 14.5441C58.2824 15.2161 58.7544 15.7201 59.3304 16.0561C59.9224 16.3921 60.5544 16.5601 61.2264 16.5601Z" fill="white"/>
            <path d="M70.4856 18.0001V6.09611H72.3096L72.4776 8.37611C72.8456 7.59211 73.4056 6.96811 74.1576 6.50411C74.9096 6.04011 75.8376 5.80811 76.9416 5.80811V7.92011H76.3896C75.6856 7.92011 75.0376 8.04811 74.4456 8.30411C73.8536 8.54411 73.3816 8.96011 73.0296 9.55211C72.6776 10.1441 72.5016 10.9601 72.5016 12.0001V18.0001H70.4856Z" fill="white"/>
            <path d="M87.2683 18.2881C85.5723 18.2881 84.1163 17.9281 82.9003 17.2081C81.6843 16.4721 80.7483 15.4561 80.0923 14.1601C79.4363 12.8481 79.1083 11.3361 79.1083 9.62411C79.1083 7.91211 79.4363 6.40011 80.0923 5.08811C80.7483 3.77611 81.6843 2.75211 82.9003 2.01611C84.1163 1.28011 85.5723 0.912109 87.2683 0.912109C89.2843 0.912109 90.9323 1.41611 92.2123 2.42411C93.5083 3.41611 94.3163 4.81611 94.6363 6.62411H91.2523C91.0443 5.71211 90.5963 5.00011 89.9083 4.48811C89.2363 3.96011 88.3403 3.69611 87.2203 3.69611C85.6683 3.69611 84.4523 4.22411 83.5723 5.28011C82.6923 6.33611 82.2523 7.78411 82.2523 9.62411C82.2523 11.4641 82.6923 12.9121 83.5723 13.9681C84.4523 15.0081 85.6683 15.5281 87.2203 15.5281C88.3403 15.5281 89.2363 15.2881 89.9083 14.8081C90.5963 14.3121 91.0443 13.6321 91.2523 12.7681H94.6363C94.3163 14.4961 93.5083 15.8481 92.2123 16.8241C90.9323 17.8001 89.2843 18.2881 87.2683 18.2881Z" fill="white"/>
            <path d="M101.868 18.2881C100.844 18.2881 100.004 18.1281 99.3476 17.8081C98.6916 17.4721 98.2036 17.0321 97.8836 16.4881C97.5636 15.9441 97.4036 15.3441 97.4036 14.6881C97.4036 13.5841 97.8356 12.6881 98.6996 12.0001C99.5636 11.3121 100.86 10.9681 102.588 10.9681H105.612V10.6801C105.612 9.86411 105.38 9.26411 104.916 8.88011C104.452 8.49611 103.876 8.30411 103.188 8.30411C102.564 8.30411 102.02 8.45611 101.556 8.76011C101.092 9.04811 100.804 9.48011 100.692 10.0561H97.6916C97.7716 9.19211 98.0596 8.44011 98.5556 7.80011C99.0676 7.16011 99.7236 6.67211 100.524 6.33611C101.324 5.98411 102.22 5.80811 103.212 5.80811C104.908 5.80811 106.244 6.23211 107.22 7.08011C108.196 7.92811 108.684 9.12811 108.684 10.6801V18.0001H106.068L105.78 16.0801C105.428 16.7201 104.932 17.2481 104.292 17.6641C103.668 18.0801 102.86 18.2881 101.868 18.2881ZM102.564 15.8881C103.444 15.8881 104.124 15.6001 104.604 15.0241C105.1 14.4481 105.412 13.7361 105.54 12.8881H102.924C102.108 12.8881 101.524 13.0401 101.172 13.3441C100.82 13.6321 100.644 13.9921 100.644 14.4241C100.644 14.8881 100.82 15.2481 101.172 15.5041C101.524 15.7601 101.988 15.8881 102.564 15.8881Z" fill="white"/>
            <path d="M112.095 18.0001V6.09611H114.831L115.119 8.32811C115.551 7.56011 116.135 6.95211 116.871 6.50411C117.623 6.04011 118.503 5.80811 119.511 5.80811V9.04811H118.647C117.975 9.04811 117.375 9.15211 116.847 9.36011C116.319 9.56811 115.903 9.92811 115.599 10.4401C115.311 10.9521 115.167 11.6641 115.167 12.5761V18.0001H112.095Z" fill="white"/>
            <path d="M127.664 18.2881C126.464 18.2881 125.4 18.0321 124.472 17.5201C123.544 17.0081 122.816 16.2881 122.288 15.3601C121.76 14.4321 121.496 13.3601 121.496 12.1441C121.496 10.9121 121.752 9.81611 122.264 8.85611C122.792 7.89611 123.512 7.15211 124.424 6.62411C125.352 6.08011 126.44 5.80811 127.688 5.80811C128.856 5.80811 129.888 6.06411 130.784 6.57611C131.68 7.08811 132.376 7.79211 132.872 8.68811C133.384 9.56811 133.64 10.5521 133.64 11.6401C133.64 11.8161 133.632 12.0001 133.616 12.1921C133.616 12.3841 133.608 12.5841 133.592 12.7921H124.544C124.608 13.7201 124.928 14.4481 125.504 14.9761C126.096 15.5041 126.808 15.7681 127.64 15.7681C128.264 15.7681 128.784 15.6321 129.2 15.3601C129.632 15.0721 129.952 14.7041 130.16 14.2561H133.28C133.056 15.0081 132.68 15.6961 132.152 16.3201C131.64 16.9281 131 17.4081 130.232 17.7601C129.48 18.1121 128.624 18.2881 127.664 18.2881ZM127.688 8.30411C126.936 8.30411 126.272 8.52011 125.696 8.95211C125.12 9.36811 124.752 10.0081 124.592 10.8721H130.52C130.472 10.0881 130.184 9.46411 129.656 9.00011C129.128 8.53611 128.472 8.30411 127.688 8.30411Z" fill="white"/>
        </symbol>
        <symbol id="logo-colored" viewBox="0 0 226 32" width="134" height="19" fill="none" xmlns="http://www.w3.org/2000/svg">
            <path fill="#212529" style="fill: var(--color1, #212529)" d="M1.307 30.316v-28.295h8.691c4.985 0 8.65 1.267 10.995 3.8 2.371 2.533 3.557 6.009 3.557 10.429 0 4.338-1.186 7.774-3.557 10.307-2.344 2.506-6.009 3.759-10.995 3.759h-8.691zM4.702 27.486h5.214c2.749 0 4.931-0.445 6.548-1.334 1.644-0.916 2.816-2.21 3.517-3.88 0.701-1.698 1.051-3.705 1.051-6.023 0-2.371-0.35-4.406-1.051-6.104s-1.873-3.005-3.517-3.921c-1.617-0.916-3.8-1.374-6.548-1.374h-5.214v22.636z"></path>
            <path fill="#212529" style="fill: var(--color1, #212529)" d="M39.193 30.801c-1.886 0-3.584-0.431-5.093-1.293s-2.708-2.075-3.597-3.638c-0.862-1.59-1.293-3.449-1.293-5.578s0.445-3.975 1.334-5.538c0.889-1.59 2.088-2.816 3.597-3.678 1.536-0.862 3.247-1.293 5.133-1.293s3.584 0.431 5.093 1.293c1.509 0.862 2.695 2.088 3.557 3.678 0.889 1.563 1.334 3.409 1.334 5.538s-0.445 3.988-1.334 5.578c-0.889 1.563-2.102 2.776-3.638 3.638-1.509 0.862-3.207 1.293-5.093 1.293zM39.193 27.891c1.159 0 2.237-0.283 3.234-0.849s1.805-1.415 2.425-2.547c0.62-1.132 0.93-2.533 0.93-4.204s-0.31-3.072-0.93-4.204c-0.593-1.132-1.388-1.981-2.385-2.547s-2.061-0.849-3.193-0.849c-1.159 0-2.237 0.283-3.234 0.849s-1.805 1.415-2.425 2.547c-0.62 1.132-0.93 2.533-0.93 4.204s0.31 3.072 0.93 4.204c0.62 1.132 1.415 1.981 2.385 2.547 0.997 0.566 2.061 0.849 3.193 0.849z"></path>
            <path fill="#212529" style="fill: var(--color1, #212529)" d="M64.003 30.801c-1.913 0-3.638-0.431-5.174-1.293-1.509-0.889-2.708-2.115-3.597-3.678-0.862-1.59-1.293-3.436-1.293-5.538s0.431-3.934 1.293-5.497c0.889-1.59 2.088-2.816 3.597-3.678 1.536-0.889 3.261-1.334 5.174-1.334 2.371 0 4.365 0.62 5.982 1.859 1.644 1.24 2.681 2.897 3.112 4.972h-3.476c-0.269-1.24-0.93-2.196-1.981-2.87-1.051-0.701-2.277-1.051-3.678-1.051-1.132 0-2.196 0.283-3.193 0.849s-1.805 1.415-2.425 2.547c-0.62 1.132-0.93 2.533-0.93 4.204s0.31 3.072 0.93 4.204c0.62 1.132 1.428 1.994 2.425 2.587 0.997 0.566 2.061 0.849 3.193 0.849 1.401 0 2.627-0.337 3.678-1.011 1.051-0.701 1.711-1.684 1.981-2.951h3.476c-0.404 2.021-1.428 3.665-3.072 4.931s-3.651 1.9-6.023 1.9z"></path>
            <path fill="#212529" style="fill: var(--color1, #212529)" d="M86.018 30.316c-1.832 0-3.274-0.445-4.325-1.334s-1.576-2.493-1.576-4.81v-11.035h-3.476v-2.87h3.476l0.445-4.81h2.951v4.81h5.901v2.87h-5.901v11.035c0 1.267 0.256 2.129 0.768 2.587 0.512 0.431 1.415 0.647 2.708 0.647h2.102v2.91h-3.072z"></path>
            <path fill="#212529" style="fill: var(--color1, #212529)" d="M103.118 30.801c-1.886 0-3.584-0.431-5.093-1.293s-2.708-2.075-3.597-3.638c-0.862-1.59-1.293-3.449-1.293-5.578s0.445-3.975 1.334-5.538c0.889-1.59 2.088-2.816 3.597-3.678 1.536-0.862 3.247-1.293 5.133-1.293s3.584 0.431 5.093 1.293c1.509 0.862 2.695 2.088 3.557 3.678 0.889 1.563 1.334 3.409 1.334 5.538s-0.445 3.988-1.334 5.578c-0.889 1.563-2.102 2.776-3.638 3.638-1.509 0.862-3.207 1.293-5.093 1.293zM103.118 27.891c1.159 0 2.237-0.283 3.234-0.849s1.805-1.415 2.425-2.547c0.62-1.132 0.93-2.533 0.93-4.204s-0.31-3.072-0.93-4.204c-0.593-1.132-1.388-1.981-2.385-2.547s-2.061-0.849-3.193-0.849c-1.159 0-2.237 0.283-3.234 0.849s-1.805 1.415-2.425 2.547c-0.62 1.132-0.93 2.533-0.93 4.204s0.31 3.072 0.93 4.204c0.62 1.132 1.415 1.981 2.385 2.547 0.997 0.566 2.061 0.849 3.193 0.849z"></path>
            <path fill="#212529" style="fill: var(--color1, #212529)" d="M118.713 30.316v-20.049h3.072l0.283 3.84c0.62-1.32 1.563-2.371 2.829-3.153s2.829-1.172 4.689-1.172v3.557h-0.93c-1.186 0-2.277 0.216-3.274 0.647-0.997 0.404-1.792 1.105-2.385 2.102s-0.889 2.371-0.889 4.123v10.105h-3.395z"></path>
            <path fill="#00856f" style="fill: var(--color2, #00856f)" d="M146.978 30.801c-2.856 0-5.309-0.606-7.357-1.819-2.048-1.24-3.624-2.951-4.729-5.133-1.105-2.21-1.657-4.756-1.657-7.64s0.552-5.43 1.657-7.64c1.105-2.21 2.681-3.934 4.729-5.174s4.5-1.859 7.357-1.859c3.395 0 6.171 0.849 8.327 2.547 2.183 1.671 3.544 4.029 4.083 7.074h-5.699c-0.35-1.536-1.105-2.735-2.264-3.597-1.132-0.889-2.641-1.334-4.527-1.334-2.614 0-4.662 0.889-6.144 2.668s-2.223 4.217-2.223 7.316c0 3.099 0.741 5.538 2.223 7.316 1.482 1.752 3.53 2.627 6.144 2.627 1.886 0 3.395-0.404 4.527-1.213 1.159-0.835 1.913-1.981 2.264-3.436h5.699c-0.539 2.91-1.9 5.187-4.083 6.831-2.156 1.644-4.931 2.466-8.327 2.466z"></path>
            <path fill="#00856f" style="fill: var(--color2, #00856f)" d="M171.567 30.801c-1.725 0-3.139-0.269-4.245-0.808-1.105-0.566-1.927-1.307-2.466-2.223s-0.808-1.927-0.808-3.032c0-1.859 0.728-3.368 2.183-4.527s3.639-1.738 6.549-1.738h5.093v-0.485c0-1.374-0.391-2.385-1.172-3.032s-1.752-0.97-2.91-0.97c-1.051 0-1.967 0.256-2.749 0.768-0.781 0.485-1.267 1.213-1.455 2.183h-5.053c0.135-1.455 0.62-2.722 1.455-3.8 0.862-1.078 1.967-1.9 3.315-2.466 1.347-0.593 2.856-0.889 4.527-0.889 2.856 0 5.107 0.714 6.75 2.142s2.466 3.449 2.466 6.063v12.328h-4.406l-0.485-3.234c-0.593 1.078-1.428 1.967-2.506 2.668-1.051 0.701-2.412 1.051-4.083 1.051zM172.739 26.759c1.482 0 2.627-0.485 3.436-1.455 0.835-0.97 1.361-2.169 1.576-3.597h-4.406c-1.374 0-2.358 0.256-2.951 0.768-0.593 0.485-0.889 1.091-0.889 1.819 0 0.781 0.296 1.388 0.889 1.819s1.374 0.647 2.344 0.647z"></path>
            <path fill="#00856f" style="fill: var(--color2, #00856f)" d="M188.792 30.316v-20.049h4.608l0.485 3.759c0.728-1.293 1.711-2.317 2.951-3.072 1.267-0.781 2.749-1.172 4.446-1.172v5.457h-1.455c-1.132 0-2.142 0.175-3.032 0.525s-1.59 0.957-2.102 1.819c-0.485 0.862-0.728 2.061-0.728 3.597v9.135h-5.174z"></path>
            <path fill="#00856f" style="fill: var(--color2, #00856f)" d="M215.013 30.801c-2.021 0-3.813-0.431-5.376-1.293s-2.789-2.075-3.678-3.638c-0.889-1.563-1.334-3.368-1.334-5.416 0-2.075 0.431-3.921 1.293-5.538 0.889-1.617 2.102-2.87 3.638-3.759 1.563-0.916 3.395-1.374 5.497-1.374 1.967 0 3.705 0.431 5.214 1.293s2.681 2.048 3.517 3.557c0.862 1.482 1.293 3.139 1.293 4.972 0 0.296-0.013 0.606-0.040 0.93 0 0.323-0.013 0.66-0.040 1.011h-15.239c0.108 1.563 0.647 2.789 1.617 3.678 0.997 0.889 2.196 1.334 3.597 1.334 1.051 0 1.927-0.229 2.627-0.687 0.728-0.485 1.267-1.105 1.617-1.859h5.255c-0.377 1.267-1.011 2.425-1.9 3.476-0.862 1.024-1.94 1.832-3.234 2.425-1.267 0.593-2.708 0.889-4.325 0.889zM215.053 13.986c-1.267 0-2.385 0.364-3.355 1.091-0.97 0.701-1.59 1.779-1.859 3.234h9.984c-0.081-1.32-0.566-2.371-1.455-3.153s-1.994-1.172-3.315-1.172z"></path>
        </symbol>
        <symbol id="pin-map" width="24" height="24" viewBox="0 0 24 24" fill="" xmlns="http://www.w3.org/2000/svg">
            <path fill-rule="evenodd" clip-rule="evenodd" d="M12 2C9.87827 2 7.84344 2.84285 6.34315 4.34315C4.84285 5.84344 4 7.87827 4 10C4 13.0981 6.01574 16.1043 8.22595 18.4373C9.31061 19.5822 10.3987 20.5195 11.2167 21.1708C11.5211 21.4133 11.787 21.6152 12 21.7726C12.213 21.6152 12.4789 21.4133 12.7833 21.1708C13.6013 20.5195 14.6894 19.5822 15.774 18.4373C17.9843 16.1043 20 13.0981 20 10C20 7.87827 19.1571 5.84344 17.6569 4.34315C16.1566 2.84285 14.1217 2 12 2ZM12 23C11.4453 23.8321 11.445 23.8319 11.4448 23.8317L11.4419 23.8298L11.4352 23.8253L11.4123 23.8098C11.3928 23.7966 11.3651 23.7776 11.3296 23.753C11.2585 23.7038 11.1565 23.6321 11.0278 23.5392C10.7705 23.3534 10.4064 23.0822 9.97082 22.7354C9.10133 22.043 7.93939 21.0428 6.77405 19.8127C4.48426 17.3958 2 13.9019 2 10C2 7.34784 3.05357 4.8043 4.92893 2.92893C6.8043 1.05357 9.34784 0 12 0C14.6522 0 17.1957 1.05357 19.0711 2.92893C20.9464 4.8043 22 7.34784 22 10C22 13.9019 19.5157 17.3958 17.226 19.8127C16.0606 21.0428 14.8987 22.043 14.0292 22.7354C13.5936 23.0822 13.2295 23.3534 12.9722 23.5392C12.8435 23.6321 12.7415 23.7038 12.6704 23.753C12.6349 23.7776 12.6072 23.7966 12.5877 23.8098L12.5648 23.8253L12.5581 23.8298L12.556 23.8312C12.5557 23.8314 12.5547 23.8321 12 23ZM12 23L12.5547 23.8321C12.2188 24.056 11.7807 24.0556 11.4448 23.8317L12 23Z" fill=""/>
            <path fill-rule="evenodd" clip-rule="evenodd" d="M17 10C17 12.7614 14.7614 15 12 15C9.23858 15 7 12.7614 7 10C7 7.23858 9.23858 5 12 5C14.7614 5 17 7.23858 17 10ZM15 10C15 11.6569 13.6569 13 12 13C10.3431 13 9 11.6569 9 10C9 8.34315 10.3431 7 12 7C13.6569 7 15 8.34315 15 10Z" fill=""/>
        </symbol>
        <symbol id="mail" width="24" height="24" viewBox="0 0 24 24" fill="" xmlns="http://www.w3.org/2000/svg">
            <path fill-rule="evenodd" clip-rule="evenodd" d="M4 5C3.45228 5 3 5.45228 3 6V18C3 18.5477 3.45228 19 4 19H20C20.5477 19 21 18.5477 21 18V6C21 5.45228 20.5477 5 20 5H4ZM1 6C1 4.34772 2.34772 3 4 3H20C21.6523 3 23 4.34772 23 6V18C23 19.6523 21.6523 21 20 21H4C2.34772 21 1 19.6523 1 18V6Z" fill=""/>
            <path fill-rule="evenodd" clip-rule="evenodd" d="M1.18073 5.4265C1.49745 4.97405 2.12098 4.86402 2.57343 5.18073L12 11.7793L21.4265 5.18073C21.879 4.86402 22.5025 4.97405 22.8192 5.4265C23.1359 5.87895 23.0259 6.50248 22.5734 6.8192L12.5734 13.8192C12.2291 14.0602 11.7708 14.0602 11.4265 13.8192L1.4265 6.8192C0.974052 6.50248 0.864017 5.87895 1.18073 5.4265Z" fill=""/>
        </symbol>
        <symbol id="instagram" width="24" height="24" viewBox="0 0 24 24" fill="" xmlns="http://www.w3.org/2000/svg">
            <path fill-rule="evenodd" clip-rule="evenodd" d="M7 3C4.79086 3 3 4.79086 3 7V17C3 19.2091 4.79086 21 7 21H17C19.2091 21 21 19.2091 21 17V7C21 4.79086 19.2091 3 17 3H7ZM1 7C1 3.68629 3.68629 1 7 1H17C20.3137 1 23 3.68629 23 7V17C23 20.3137 20.3137 23 17 23H7C3.68629 23 1 20.3137 1 17V7Z" fill=""/>
            <path fill-rule="evenodd" clip-rule="evenodd" d="M12.4833 8.98924C11.8591 8.89668 11.2216 9.0033 10.6615 9.29392C10.1014 9.58455 9.64721 10.0444 9.36351 10.608C9.07982 11.1717 8.98107 11.8104 9.08132 12.4334C9.18157 13.0564 9.47571 13.6319 9.9219 14.0781C10.3681 14.5243 10.9436 14.8184 11.5666 14.9187C12.1896 15.0189 12.8283 14.9202 13.392 14.6365C13.9556 14.3528 14.4155 13.8986 14.7061 13.3385C14.9967 12.7784 15.1033 12.1409 15.0108 11.5167C14.9164 10.88 14.6197 10.2906 14.1645 9.83547C13.7094 9.38034 13.12 9.08366 12.4833 8.98924ZM9.74037 7.51868C10.6739 7.0343 11.7363 6.85661 12.7766 7.01087C13.8378 7.16823 14.8202 7.6627 15.5788 8.42126C16.3373 9.17981 16.8318 10.1622 16.9891 11.2234C17.1434 12.2637 16.9657 13.3261 16.4813 14.2596C15.997 15.1931 15.2306 15.9501 14.2912 16.423C13.3518 16.8958 12.2872 17.0604 11.2489 16.8933C10.2105 16.7262 9.25134 16.236 8.50768 15.4923C7.76403 14.7487 7.2738 13.7895 7.10672 12.7511C6.93964 11.7128 7.10422 10.6482 7.57704 9.70884C8.04987 8.76944 8.80687 8.00305 9.74037 7.51868Z" fill=""/>
            <path fill-rule="evenodd" clip-rule="evenodd" d="M16.5 6.5C16.5 5.94772 16.9477 5.5 17.5 5.5H17.51C18.0623 5.5 18.51 5.94772 18.51 6.5C18.51 7.05228 18.0623 7.5 17.51 7.5H17.5C16.9477 7.5 16.5 7.05228 16.5 6.5Z" fill=""/>
        </symbol>
        <symbol id="f-book" width="24" height="24" viewBox="0 0 24 24" fill="" xmlns="http://www.w3.org/2000/svg">
            <path fill-rule="evenodd" clip-rule="evenodd" d="M10.7574 2.75736C11.8826 1.63214 13.4087 1 15 1H18C18.5523 1 19 1.44772 19 2V6C19 6.55228 18.5523 7 18 7H15V9H18C18.3079 9 18.5987 9.14187 18.7882 9.38459C18.9777 9.6273 19.0448 9.94379 18.9701 10.2425L17.9701 14.2425C17.8589 14.6877 17.4589 15 17 15H15V22C15 22.5523 14.5523 23 14 23H10C9.44772 23 9 22.5523 9 22V15H7C6.44772 15 6 14.5523 6 14V10C6 9.44772 6.44772 9 7 9H9V7C9 5.4087 9.63214 3.88258 10.7574 2.75736ZM15 3C13.9391 3 12.9217 3.42143 12.1716 4.17157C11.4214 4.92172 11 5.93913 11 7V10C11 10.5523 10.5523 11 10 11H8V13H10C10.5523 13 11 13.4477 11 14V21H13V14C13 13.4477 13.4477 13 14 13H16.2192L16.7192 11H14C13.4477 11 13 10.5523 13 10V7C13 6.46957 13.2107 5.96086 13.5858 5.58579C13.9609 5.21071 14.4696 5 15 5H17V3H15Z" fill=""/>
        </symbol>
        <symbol id="menu" width="40" height="40" viewBox="0 0 40 40" fill="none" xmlns="http://www.w3.org/2000/svg">
            <path d="M10 20H30" stroke="#FFFAF1" stroke-width="2" stroke-linecap="round" stroke-linejoin="round"/>
            <path d="M10 12H30" stroke="#FFFAF1" stroke-width="2" stroke-linecap="round" stroke-linejoin="round"/>
            <path d="M18 28L30 28" stroke="#FFFAF1" stroke-width="2" stroke-linecap="round" stroke-linejoin="round"/>
        </symbol>
        <symbol id="close" width="40" height="40" viewBox="0 0 40 40" fill="none" xmlns="http://www.w3.org/2000/svg">
            <path d="M30 10L10 30M10 10L30 30" stroke="#FFFAF1" stroke-width="2" stroke-linecap="round" stroke-linejoin="round"/>
        </symbol>
        <symbol id="icon-youtube-1" viewBox="0 0 32 32" fill="none" xmlns="http://www.w3.org/2000/svg">
            <path fill="none" stroke="#fffaf1" style="stroke: var(--color1, #fffaf1)" stroke-linejoin="round" stroke-linecap="round" stroke-miterlimit="4" stroke-width="2.6667" d="M30.053 8.56c-0.158-0.633-0.481-1.213-0.935-1.681s-1.024-0.808-1.651-0.986c-2.293-0.56-11.467-0.56-11.467-0.56s-9.173 0-11.467 0.613c-0.628 0.178-1.197 0.518-1.652 0.986s-0.777 1.048-0.935 1.681c-0.42 2.327-0.625 4.688-0.613 7.053-0.015 2.383 0.19 4.762 0.613 7.107 0.175 0.613 0.504 1.171 0.958 1.619s1.014 0.772 1.629 0.941c2.293 0.613 11.467 0.613 11.467 0.613s9.173 0 11.467-0.613c0.628-0.178 1.197-0.518 1.651-0.986s0.777-1.048 0.935-1.681c0.417-2.31 0.622-4.653 0.613-7 0.015-2.383-0.19-4.762-0.613-7.107z"></path>
            <path fill="none" stroke="#fffaf1" style="stroke: var(--color1, #fffaf1)" stroke-linejoin="round" stroke-linecap="round" stroke-miterlimit="4" stroke-width="2.6667" d="M13 20.027l7.667-4.36-7.667-4.36v8.72z"></path>
        </symbol>
    </defs>
</svg>